<svg width="20" height="14" viewBox="0 0 20 14" fill="none" xmlns="http://www.w3.org/2000/svg">
<path d="M5.66666 12.0833H2.91666C2.74999 12.0833 2.66666 12 2.58333 11.9166C2.49999 11.8333 2.41666 11.6666 2.49999 11.5C2.99999 10.0833 4.24999 9.24998 5.66666 9.24998C7.41666 9.24998 8.83333 7.74998 8.83333 5.99998C8.83333 4.24998 7.41666 2.58331 5.66666 2.58331C3.91666 2.58331 2.49999 4.08331 2.49999 5.91665C2.49999 6.74998 2.83333 7.58331 3.33333 8.16665C2.24999 8.74998 1.41666 9.66665 0.91666 10.9166C0.749994 11.5 0.833327 12.25 1.24999 12.8333C1.66666 13.4166 2.24999 13.75 2.91666 13.75H5.66666C6.16666 13.75 6.49999 13.4166 6.49999 12.9166C6.49999 12.4166 6.16666 12.0833 5.66666 12.0833ZM4.16666 5.91665C4.16666 4.99998 4.83333 4.33331 5.66666 4.33331C6.49999 4.33331 7.16666 5.08331 7.16666 5.91665C7.16666 6.83331 6.49999 7.49998 5.66666 7.49998C4.83333 7.49998 4.16666 6.74998 4.16666 5.91665Z" fill="#101828"/>
<path d="M19.0833 10.4167C18.5 8.83333 17.3333 7.66667 16 7C16.75 6.33333 17.1666 5.33333 17.1666 4.16667C17.1666 2 15.5 0.25 13.5 0.25C11.5 0.25 9.83331 2 9.83331 4.16667C9.83331 5.25 10.25 6.25 11 7C9.66664 7.66667 8.49998 8.83333 7.91664 10.4167C7.49998 11.1667 7.66664 12 8.08331 12.6667C8.49998 13.3333 9.24998 13.6667 9.99998 13.6667H16.9166C17.6666 13.6667 18.4166 13.25 18.8333 12.6667C19.3333 12 19.4166 11.1667 19.0833 10.4167ZM11.4166 4.25C11.4166 3 12.3333 2 13.4166 2C14.5 2 15.4166 3 15.4166 4.25C15.4166 5.5 14.5 6.5 13.4166 6.5C12.3333 6.5 11.4166 5.41667 11.4166 4.25ZM17.4166 11.75C17.3333 11.8333 17.1666 12.0833 16.9166 12.0833H9.99998C9.66664 12.0833 9.49998 11.8333 9.49998 11.75C9.41664 11.6667 9.24998 11.3333 9.41665 11C10.0833 9.25 11.75 8.08333 13.5 8.08333C15.25 8.08333 16.9166 9.25 17.5833 11C17.6666 11.3333 17.5 11.6667 17.4166 11.75Z" fill="#101828"/>
</svg>
