<svg width="18" height="18" viewBox="0 0 18 18" fill="none" xmlns="http://www.w3.org/2000/svg">
<path d="M9 16.5C13.1421 16.5 16.5 13.1421 16.5 9C16.5 4.85786 13.1421 1.5 9 1.5C4.85786 1.5 1.5 4.85786 1.5 9C1.5 13.1421 4.85786 16.5 9 16.5Z" stroke="#101828" stroke-width="1.5"/>
<path d="M4.41663 9.00002C4.41663 6.46877 6.46871 4.41669 8.99996 4.41669" stroke="#101828" stroke-width="1.5" stroke-linecap="round"/>
<path d="M8.99996 11.0834C10.1506 11.0834 11.0833 10.1506 11.0833 9.00002C11.0833 7.84943 10.1506 6.91669 8.99996 6.91669C7.84937 6.91669 6.91663 7.84943 6.91663 9.00002C6.91663 10.1506 7.84937 11.0834 8.99996 11.0834Z" stroke="#101828" stroke-width="1.5"/>
</svg>
