<svg width="20" height="15" viewBox="0 0 20 15" xmlns="http://www.w3.org/2000/svg">
<path d="M7.49996 1.16669H17.5C17.721 1.16669 17.9329 1.25448 18.0892 1.41076C18.2455 1.56705 18.3333 1.77901 18.3333 2.00002V12.8334C18.3333 13.0544 18.2455 13.2663 18.0892 13.4226C17.9329 13.5789 17.721 13.6667 17.5 13.6667H7.49996M7.49996 1.16669H2.49996C2.27895 1.16669 2.06698 1.25448 1.9107 1.41076C1.75442 1.56705 1.66663 1.77901 1.66663 2.00002V12.8334C1.66663 13.0544 1.75442 13.2663 1.9107 13.4226C2.06698 13.5789 2.27895 13.6667 2.49996 13.6667H7.49996M7.49996 1.16669V13.6667" stroke="#101828" stroke-width="1.5"/>
<path d="M4.58325 4.08335V5.75002M15.4166 3.66669L10.4166 10.75" stroke="#101828" stroke-width="1.5" stroke-linecap="round" stroke-linejoin="round"/>
<path d="M5.41667 8.25002C5.41667 7.78978 5.04357 7.41669 4.58333 7.41669C4.1231 7.41669 3.75 7.78978 3.75 8.25002C3.75 8.71026 4.1231 9.08335 4.58333 9.08335C5.04357 9.08335 5.41667 8.71026 5.41667 8.25002Z" fill="#101828"/>
<path d="M5.41667 10.75C5.41667 10.2898 5.04357 9.91669 4.58333 9.91669C4.1231 9.91669 3.75 10.2898 3.75 10.75C3.75 11.2103 4.1231 11.5834 4.58333 11.5834C5.04357 11.5834 5.41667 11.2103 5.41667 10.75Z" fill="#101828"/>
</svg>
