<svg width="20" height="16" viewBox="0 0 20 16" xmlns="http://www.w3.org/2000/svg">
<path d="M18.5714 1.57141H1.42852C1.23908 1.57141 1.0574 1.64667 0.923443 1.78062C0.789488 1.91458 0.714233 2.09626 0.714233 2.2857V13.7143C0.714233 13.9037 0.789488 14.0854 0.923443 14.2193C1.0574 14.3533 1.23908 14.4286 1.42852 14.4286H18.5714C18.7608 14.4286 18.9425 14.3533 19.0765 14.2193C19.2104 14.0854 19.2857 13.9037 19.2857 13.7143V2.2857C19.2857 2.09626 19.2104 1.91458 19.0765 1.78062C18.9425 1.64667 18.7608 1.57141 18.5714 1.57141Z"  stroke-width="1.4" stroke-linecap="round" stroke-linejoin="round"/>
<path d="M15.7143 5.14281H16.4286M15.7143 7.99996H16.4286M12.1428 4.42853H4.2857C4.09626 4.42853 3.91458 4.50378 3.78062 4.63774C3.64667 4.77169 3.57141 4.95337 3.57141 5.14281V10.8571C3.57141 11.0465 3.64667 11.2282 3.78062 11.3622C3.91458 11.4961 4.09626 11.5714 4.2857 11.5714H12.1428C12.3323 11.5714 12.514 11.4961 12.6479 11.3622C12.7819 11.2282 12.8571 11.0465 12.8571 10.8571V5.14281C12.8571 4.95337 12.7819 4.77169 12.6479 4.63774C12.514 4.50378 12.3323 4.42853 12.1428 4.42853Z" stroke="#101828" stroke-width="1.4" stroke-linecap="round" stroke-linejoin="round"/>
</svg>
