<svg width="15" height="16" viewBox="0 0 15 16" fill="none" xmlns="http://www.w3.org/2000/svg">
<path d="M13.475 4.025L13.4834 4.01667L10.3834 0.916667L9.50004 1.8L11.2584 3.55833C10.475 3.85833 9.91671 4.60833 9.91671 5.5C9.91671 5.77359 9.97059 6.0445 10.0753 6.29726C10.18 6.55002 10.3334 6.77968 10.5269 6.97314C10.9176 7.36384 11.4475 7.58333 12 7.58333C12.3 7.58333 12.575 7.51667 12.8334 7.40833V13.4167C12.8334 13.6377 12.7456 13.8496 12.5893 14.0059C12.433 14.1622 12.2211 14.25 12 14.25C11.779 14.25 11.5671 14.1622 11.4108 14.0059C11.2545 13.8496 11.1667 13.6377 11.1667 13.4167V9.66667C11.1667 9.22464 10.9911 8.80072 10.6786 8.48816C10.366 8.17559 9.94207 8 9.50004 8H8.66671V2.16667C8.66671 1.72464 8.49111 1.30072 8.17855 0.988155C7.86599 0.675595 7.44207 0.5 7.00004 0.5H2.00004C1.55801 0.5 1.13409 0.675595 0.821529 0.988155C0.508969 1.30072 0.333374 1.72464 0.333374 2.16667V15.5H8.66671V9.25H9.91671V13.4167C9.91671 13.9692 10.1362 14.4991 10.5269 14.8898C10.9176 15.2805 11.4475 15.5 12 15.5C12.2736 15.5 12.5445 15.4461 12.7973 15.3414C13.0501 15.2367 13.2797 15.0833 13.4732 14.8898C13.6666 14.6964 13.8201 14.4667 13.9248 14.2139C14.0295 13.9612 14.0834 13.6903 14.0834 13.4167V5.5C14.0834 4.925 13.85 4.4 13.475 4.025ZM7.00004 9.25V13.8333H2.00004V8H7.00004V9.25ZM7.00004 6.33333H2.00004V2.16667H7.00004V6.33333ZM12 6.33333C11.779 6.33333 11.5671 6.24554 11.4108 6.08926C11.2545 5.93297 11.1667 5.72101 11.1667 5.5C11.1667 5.27899 11.2545 5.06702 11.4108 4.91074C11.5671 4.75446 11.779 4.66667 12 4.66667C12.2211 4.66667 12.433 4.75446 12.5893 4.91074C12.7456 5.06702 12.8334 5.27899 12.8334 5.5C12.8334 5.72101 12.7456 5.93297 12.5893 6.08926C12.433 6.24554 12.2211 6.33333 12 6.33333Z" fill="#101828"/>
</svg>
