<svg width="18" height="18" viewBox="0 0 18 18" fill="none" xmlns="http://www.w3.org/2000/svg">
<path d="M0.666626 10.6667C0.666626 7.52417 0.666626 5.9525 1.64329 4.97667C2.61913 4 4.19079 4 7.33329 4H10.6666C13.8091 4 15.3808 4 16.3566 4.97667C17.3333 5.9525 17.3333 7.52417 17.3333 10.6667C17.3333 13.8092 17.3333 15.3808 16.3566 16.3567C15.3808 17.3333 13.8091 17.3333 10.6666 17.3333H7.33329C4.19079 17.3333 2.61913 17.3333 1.64329 16.3567C0.666626 15.3808 0.666626 13.8092 0.666626 10.6667Z" stroke="#101828" stroke-width="1.3"/>
<path d="M3.16663 8.16667C3.16663 7.72464 3.34222 7.30072 3.65478 6.98816C3.96734 6.6756 4.39127 6.5 4.83329 6.5H13.1666C13.6087 6.5 14.0326 6.6756 14.3451 6.98816C14.6577 7.30072 14.8333 7.72464 14.8333 8.16667C14.8333 8.60869 14.6577 9.03262 14.3451 9.34518C14.0326 9.65774 13.6087 9.83333 13.1666 9.83333H4.83329C4.39127 9.83333 3.96734 9.65774 3.65478 9.34518C3.34222 9.03262 3.16663 8.60869 3.16663 8.16667ZM6.49996 13.1667C6.49996 13.4982 6.36826 13.8161 6.13384 14.0505C5.89942 14.285 5.58148 14.4167 5.24996 14.4167C4.91844 14.4167 4.6005 14.285 4.36608 14.0505C4.13166 13.8161 3.99996 13.4982 3.99996 13.1667C3.99996 12.8351 4.13166 12.5172 4.36608 12.2828C4.6005 12.0484 4.91844 11.9167 5.24996 11.9167C5.58148 11.9167 5.89942 12.0484 6.13384 12.2828C6.36826 12.5172 6.49996 12.8351 6.49996 13.1667Z" stroke="#101828" stroke-width="1.3"/>
<path d="M11.5 8.58335V9.83335M9.83329 13.1667H14M4.41663 4.00002L11.5 0.666687" stroke="#101828" stroke-width="1.3" stroke-linecap="round"/>
</svg>
